<?xml version="1.0" encoding="utf-8" standalone="no"?>
<!DOCTYPE svg PUBLIC "-//W3C//DTD SVG 1.1//EN"
  "http://www.w3.org/Graphics/SVG/1.1/DTD/svg11.dtd">
<!-- Created with matplotlib (https://matplotlib.org/) -->
<svg height="432pt" version="1.1" viewBox="0 0 1152 432" width="1152pt" xmlns="http://www.w3.org/2000/svg" xmlns:xlink="http://www.w3.org/1999/xlink">
 <defs>
  <style type="text/css">
*{stroke-linecap:butt;stroke-linejoin:round;}
  </style>
 </defs>
 <g id="figure_1">
  <g id="patch_1">
   <path d="M 0 432 
L 1152 432 
L 1152 0 
L 0 0 
z
" style="fill:#ffffff;"/>
  </g>
  <g id="axes_1">
   <g id="patch_2">
    <path d="M 144 378 
L 1036.8 378 
L 1036.8 51.84 
L 144 51.84 
z
" style="fill:#ffffff;"/>
   </g>
   <g id="matplotlib.axis_1">
    <g id="xtick_1">
     <g id="line2d_1">
      <defs>
       <path d="M 0 0 
L 0 3.5 
" id="mc715a4995d" style="stroke:#000000;stroke-width:0.8;"/>
      </defs>
      <g>
       <use style="stroke:#000000;stroke-width:0.8;" x="184.581818" xlink:href="#mc715a4995d" y="378"/>
      </g>
     </g>
     <g id="text_1">
      <!-- 0 -->
      <defs>
       <path d="M 31.78125 66.40625 
Q 24.171875 66.40625 20.328125 58.90625 
Q 16.5 51.421875 16.5 36.375 
Q 16.5 21.390625 20.328125 13.890625 
Q 24.171875 6.390625 31.78125 6.390625 
Q 39.453125 6.390625 43.28125 13.890625 
Q 47.125 21.390625 47.125 36.375 
Q 47.125 51.421875 43.28125 58.90625 
Q 39.453125 66.40625 31.78125 66.40625 
z
M 31.78125 74.21875 
Q 44.046875 74.21875 50.515625 64.515625 
Q 56.984375 54.828125 56.984375 36.375 
Q 56.984375 17.96875 50.515625 8.265625 
Q 44.046875 -1.421875 31.78125 -1.421875 
Q 19.53125 -1.421875 13.0625 8.265625 
Q 6.59375 17.96875 6.59375 36.375 
Q 6.59375 54.828125 13.0625 64.515625 
Q 19.53125 74.21875 31.78125 74.21875 
z
" id="DejaVuSans-48"/>
      </defs>
      <g transform="translate(181.400568 392.598437)scale(0.1 -0.1)">
       <use xlink:href="#DejaVuSans-48"/>
      </g>
     </g>
    </g>
    <g id="xtick_2">
     <g id="line2d_2">
      <g>
       <use style="stroke:#000000;stroke-width:0.8;" x="356.816404" xlink:href="#mc715a4995d" y="378"/>
      </g>
     </g>
     <g id="text_2">
      <!-- 2 -->
      <defs>
       <path d="M 19.1875 8.296875 
L 53.609375 8.296875 
L 53.609375 0 
L 7.328125 0 
L 7.328125 8.296875 
Q 12.9375 14.109375 22.625 23.890625 
Q 32.328125 33.6875 34.8125 36.53125 
Q 39.546875 41.84375 41.421875 45.53125 
Q 43.3125 49.21875 43.3125 52.78125 
Q 43.3125 58.59375 39.234375 62.25 
Q 35.15625 65.921875 28.609375 65.921875 
Q 23.96875 65.921875 18.8125 64.3125 
Q 13.671875 62.703125 7.8125 59.421875 
L 7.8125 69.390625 
Q 13.765625 71.78125 18.9375 73 
Q 24.125 74.21875 28.421875 74.21875 
Q 39.75 74.21875 46.484375 68.546875 
Q 53.21875 62.890625 53.21875 53.421875 
Q 53.21875 48.921875 51.53125 44.890625 
Q 49.859375 40.875 45.40625 35.40625 
Q 44.1875 33.984375 37.640625 27.21875 
Q 31.109375 20.453125 19.1875 8.296875 
z
" id="DejaVuSans-50"/>
      </defs>
      <g transform="translate(353.635154 392.598437)scale(0.1 -0.1)">
       <use xlink:href="#DejaVuSans-50"/>
      </g>
     </g>
    </g>
    <g id="xtick_3">
     <g id="line2d_3">
      <g>
       <use style="stroke:#000000;stroke-width:0.8;" x="529.05099" xlink:href="#mc715a4995d" y="378"/>
      </g>
     </g>
     <g id="text_3">
      <!-- 4 -->
      <defs>
       <path d="M 37.796875 64.3125 
L 12.890625 25.390625 
L 37.796875 25.390625 
z
M 35.203125 72.90625 
L 47.609375 72.90625 
L 47.609375 25.390625 
L 58.015625 25.390625 
L 58.015625 17.1875 
L 47.609375 17.1875 
L 47.609375 0 
L 37.796875 0 
L 37.796875 17.1875 
L 4.890625 17.1875 
L 4.890625 26.703125 
z
" id="DejaVuSans-52"/>
      </defs>
      <g transform="translate(525.86974 392.598437)scale(0.1 -0.1)">
       <use xlink:href="#DejaVuSans-52"/>
      </g>
     </g>
    </g>
    <g id="xtick_4">
     <g id="line2d_4">
      <g>
       <use style="stroke:#000000;stroke-width:0.8;" x="701.285575" xlink:href="#mc715a4995d" y="378"/>
      </g>
     </g>
     <g id="text_4">
      <!-- 6 -->
      <defs>
       <path d="M 33.015625 40.375 
Q 26.375 40.375 22.484375 35.828125 
Q 18.609375 31.296875 18.609375 23.390625 
Q 18.609375 15.53125 22.484375 10.953125 
Q 26.375 6.390625 33.015625 6.390625 
Q 39.65625 6.390625 43.53125 10.953125 
Q 47.40625 15.53125 47.40625 23.390625 
Q 47.40625 31.296875 43.53125 35.828125 
Q 39.65625 40.375 33.015625 40.375 
z
M 52.59375 71.296875 
L 52.59375 62.3125 
Q 48.875 64.0625 45.09375 64.984375 
Q 41.3125 65.921875 37.59375 65.921875 
Q 27.828125 65.921875 22.671875 59.328125 
Q 17.53125 52.734375 16.796875 39.40625 
Q 19.671875 43.65625 24.015625 45.921875 
Q 28.375 48.1875 33.59375 48.1875 
Q 44.578125 48.1875 50.953125 41.515625 
Q 57.328125 34.859375 57.328125 23.390625 
Q 57.328125 12.15625 50.6875 5.359375 
Q 44.046875 -1.421875 33.015625 -1.421875 
Q 20.359375 -1.421875 13.671875 8.265625 
Q 6.984375 17.96875 6.984375 36.375 
Q 6.984375 53.65625 15.1875 63.9375 
Q 23.390625 74.21875 37.203125 74.21875 
Q 40.921875 74.21875 44.703125 73.484375 
Q 48.484375 72.75 52.59375 71.296875 
z
" id="DejaVuSans-54"/>
      </defs>
      <g transform="translate(698.104325 392.598437)scale(0.1 -0.1)">
       <use xlink:href="#DejaVuSans-54"/>
      </g>
     </g>
    </g>
    <g id="xtick_5">
     <g id="line2d_5">
      <g>
       <use style="stroke:#000000;stroke-width:0.8;" x="873.520161" xlink:href="#mc715a4995d" y="378"/>
      </g>
     </g>
     <g id="text_5">
      <!-- 8 -->
      <defs>
       <path d="M 31.78125 34.625 
Q 24.75 34.625 20.71875 30.859375 
Q 16.703125 27.09375 16.703125 20.515625 
Q 16.703125 13.921875 20.71875 10.15625 
Q 24.75 6.390625 31.78125 6.390625 
Q 38.8125 6.390625 42.859375 10.171875 
Q 46.921875 13.96875 46.921875 20.515625 
Q 46.921875 27.09375 42.890625 30.859375 
Q 38.875 34.625 31.78125 34.625 
z
M 21.921875 38.8125 
Q 15.578125 40.375 12.03125 44.71875 
Q 8.5 49.078125 8.5 55.328125 
Q 8.5 64.0625 14.71875 69.140625 
Q 20.953125 74.21875 31.78125 74.21875 
Q 42.671875 74.21875 48.875 69.140625 
Q 55.078125 64.0625 55.078125 55.328125 
Q 55.078125 49.078125 51.53125 44.71875 
Q 48 40.375 41.703125 38.8125 
Q 48.828125 37.15625 52.796875 32.3125 
Q 56.78125 27.484375 56.78125 20.515625 
Q 56.78125 9.90625 50.3125 4.234375 
Q 43.84375 -1.421875 31.78125 -1.421875 
Q 19.734375 -1.421875 13.25 4.234375 
Q 6.78125 9.90625 6.78125 20.515625 
Q 6.78125 27.484375 10.78125 32.3125 
Q 14.796875 37.15625 21.921875 38.8125 
z
M 18.3125 54.390625 
Q 18.3125 48.734375 21.84375 45.5625 
Q 25.390625 42.390625 31.78125 42.390625 
Q 38.140625 42.390625 41.71875 45.5625 
Q 45.3125 48.734375 45.3125 54.390625 
Q 45.3125 60.0625 41.71875 63.234375 
Q 38.140625 66.40625 31.78125 66.40625 
Q 25.390625 66.40625 21.84375 63.234375 
Q 18.3125 60.0625 18.3125 54.390625 
z
" id="DejaVuSans-56"/>
      </defs>
      <g transform="translate(870.338911 392.598437)scale(0.1 -0.1)">
       <use xlink:href="#DejaVuSans-56"/>
      </g>
     </g>
    </g>
    <g id="text_6">
     <!-- x -->
     <defs>
      <path d="M 54.890625 54.6875 
L 35.109375 28.078125 
L 55.90625 0 
L 45.3125 0 
L 29.390625 21.484375 
L 13.484375 0 
L 2.875 0 
L 24.125 28.609375 
L 4.6875 54.6875 
L 15.28125 54.6875 
L 29.78125 35.203125 
L 44.28125 54.6875 
z
" id="DejaVuSans-120"/>
     </defs>
     <g transform="translate(584.48125 413.875)scale(0.2 -0.2)">
      <use xlink:href="#DejaVuSans-120"/>
     </g>
    </g>
   </g>
   <g id="matplotlib.axis_2">
    <g id="ytick_1">
     <g id="line2d_6">
      <defs>
       <path d="M 0 0 
L -3.5 0 
" id="mfe748f5546" style="stroke:#000000;stroke-width:0.8;"/>
      </defs>
      <g>
       <use style="stroke:#000000;stroke-width:0.8;" x="144" xlink:href="#mfe748f5546" y="378"/>
      </g>
     </g>
     <g id="text_7">
      <!-- −1.0 -->
      <defs>
       <path d="M 10.59375 35.5 
L 73.1875 35.5 
L 73.1875 27.203125 
L 10.59375 27.203125 
z
" id="DejaVuSans-8722"/>
       <path d="M 12.40625 8.296875 
L 28.515625 8.296875 
L 28.515625 63.921875 
L 10.984375 60.40625 
L 10.984375 69.390625 
L 28.421875 72.90625 
L 38.28125 72.90625 
L 38.28125 8.296875 
L 54.390625 8.296875 
L 54.390625 0 
L 12.40625 0 
z
" id="DejaVuSans-49"/>
       <path d="M 10.6875 12.40625 
L 21 12.40625 
L 21 0 
L 10.6875 0 
z
" id="DejaVuSans-46"/>
      </defs>
      <g transform="translate(112.717187 381.799219)scale(0.1 -0.1)">
       <use xlink:href="#DejaVuSans-8722"/>
       <use x="83.789062" xlink:href="#DejaVuSans-49"/>
       <use x="147.412109" xlink:href="#DejaVuSans-46"/>
       <use x="179.199219" xlink:href="#DejaVuSans-48"/>
      </g>
     </g>
    </g>
    <g id="ytick_2">
     <g id="line2d_7">
      <g>
       <use style="stroke:#000000;stroke-width:0.8;" x="144" xlink:href="#mfe748f5546" y="312.768"/>
      </g>
     </g>
     <g id="text_8">
      <!-- −0.5 -->
      <defs>
       <path d="M 10.796875 72.90625 
L 49.515625 72.90625 
L 49.515625 64.59375 
L 19.828125 64.59375 
L 19.828125 46.734375 
Q 21.96875 47.46875 24.109375 47.828125 
Q 26.265625 48.1875 28.421875 48.1875 
Q 40.625 48.1875 47.75 41.5 
Q 54.890625 34.8125 54.890625 23.390625 
Q 54.890625 11.625 47.5625 5.09375 
Q 40.234375 -1.421875 26.90625 -1.421875 
Q 22.3125 -1.421875 17.546875 -0.640625 
Q 12.796875 0.140625 7.71875 1.703125 
L 7.71875 11.625 
Q 12.109375 9.234375 16.796875 8.0625 
Q 21.484375 6.890625 26.703125 6.890625 
Q 35.15625 6.890625 40.078125 11.328125 
Q 45.015625 15.765625 45.015625 23.390625 
Q 45.015625 31 40.078125 35.4375 
Q 35.15625 39.890625 26.703125 39.890625 
Q 22.75 39.890625 18.8125 39.015625 
Q 14.890625 38.140625 10.796875 36.28125 
z
" id="DejaVuSans-53"/>
      </defs>
      <g transform="translate(112.717187 316.567219)scale(0.1 -0.1)">
       <use xlink:href="#DejaVuSans-8722"/>
       <use x="83.789062" xlink:href="#DejaVuSans-48"/>
       <use x="147.412109" xlink:href="#DejaVuSans-46"/>
       <use x="179.199219" xlink:href="#DejaVuSans-53"/>
      </g>
     </g>
    </g>
    <g id="ytick_3">
     <g id="line2d_8">
      <g>
       <use style="stroke:#000000;stroke-width:0.8;" x="144" xlink:href="#mfe748f5546" y="247.536"/>
      </g>
     </g>
     <g id="text_9">
      <!-- 0.0 -->
      <g transform="translate(121.096875 251.335219)scale(0.1 -0.1)">
       <use xlink:href="#DejaVuSans-48"/>
       <use x="63.623047" xlink:href="#DejaVuSans-46"/>
       <use x="95.410156" xlink:href="#DejaVuSans-48"/>
      </g>
     </g>
    </g>
    <g id="ytick_4">
     <g id="line2d_9">
      <g>
       <use style="stroke:#000000;stroke-width:0.8;" x="144" xlink:href="#mfe748f5546" y="182.304"/>
      </g>
     </g>
     <g id="text_10">
      <!-- 0.5 -->
      <g transform="translate(121.096875 186.103219)scale(0.1 -0.1)">
       <use xlink:href="#DejaVuSans-48"/>
       <use x="63.623047" xlink:href="#DejaVuSans-46"/>
       <use x="95.410156" xlink:href="#DejaVuSans-53"/>
      </g>
     </g>
    </g>
    <g id="ytick_5">
     <g id="line2d_10">
      <g>
       <use style="stroke:#000000;stroke-width:0.8;" x="144" xlink:href="#mfe748f5546" y="117.072"/>
      </g>
     </g>
     <g id="text_11">
      <!-- 1.0 -->
      <g transform="translate(121.096875 120.871219)scale(0.1 -0.1)">
       <use xlink:href="#DejaVuSans-49"/>
       <use x="63.623047" xlink:href="#DejaVuSans-46"/>
       <use x="95.410156" xlink:href="#DejaVuSans-48"/>
      </g>
     </g>
    </g>
    <g id="ytick_6">
     <g id="line2d_11">
      <g>
       <use style="stroke:#000000;stroke-width:0.8;" x="144" xlink:href="#mfe748f5546" y="51.84"/>
      </g>
     </g>
     <g id="text_12">
      <!-- 1.5 -->
      <g transform="translate(121.096875 55.639219)scale(0.1 -0.1)">
       <use xlink:href="#DejaVuSans-49"/>
       <use x="63.623047" xlink:href="#DejaVuSans-46"/>
       <use x="95.410156" xlink:href="#DejaVuSans-53"/>
      </g>
     </g>
    </g>
    <g id="text_13">
     <!-- $\delta_{b\gamma}$ -->
     <defs>
      <path d="M 54.25 63.328125 
Q 49.953125 66.75 38.28125 66.75 
Q 25.921875 66.75 24.8125 61.03125 
Q 23.921875 56.546875 36.375 54.203125 
Q 46.140625 52.390625 50.828125 46.921875 
Q 56.5 40.328125 53.859375 26.8125 
Q 51.3125 13.875 43.171875 6.25 
Q 34.96875 -1.421875 23.25 -1.421875 
Q 11.578125 -1.421875 6.34375 6.25 
Q 1.125 13.875 3.765625 27.296875 
Q 5.671875 37.25 13.921875 45.3125 
Q 17.140625 48.4375 21.140625 50.203125 
Q 14.265625 54.046875 15.625 60.9375 
Q 18.21875 74.21875 39.75 74.21875 
Q 50.53125 74.21875 55.71875 70.796875 
z
M 27.390625 47.75 
Q 23.828125 46.34375 20.40625 42.78125 
Q 15.140625 37.25 13.234375 27.296875 
Q 11.28125 17.390625 14.359375 11.8125 
Q 17.484375 6.203125 24.75 6.203125 
Q 31.9375 6.203125 37.203125 11.859375 
Q 42.53125 17.53125 44.34375 26.8125 
Q 46.1875 36.53125 42.671875 41.21875 
Q 38.921875 46.234375 32.859375 46.78125 
Q 29.78125 47.078125 27.390625 47.75 
z
" id="DejaVuSans-Oblique-948"/>
      <path d="M 49.515625 33.40625 
Q 49.515625 40.484375 46.265625 44.484375 
Q 43.015625 48.484375 37.3125 48.484375 
Q 33.15625 48.484375 29.515625 46.453125 
Q 25.875 44.4375 23.1875 40.578125 
Q 20.359375 36.53125 18.71875 31.171875 
Q 17.09375 25.828125 17.09375 20.515625 
Q 17.09375 13.765625 20.28125 9.9375 
Q 23.484375 6.109375 29.109375 6.109375 
Q 33.34375 6.109375 36.953125 8.078125 
Q 40.578125 10.0625 43.3125 13.921875 
Q 46.09375 17.921875 47.796875 23.234375 
Q 49.515625 28.5625 49.515625 33.40625 
z
M 21.578125 46.390625 
Q 24.90625 50.875 29.90625 53.4375 
Q 34.90625 56 40.375 56 
Q 48.78125 56 53.734375 50.328125 
Q 58.6875 44.671875 58.6875 35.015625 
Q 58.6875 27.09375 55.78125 19.671875 
Q 52.875 12.25 47.515625 6.5 
Q 44 2.6875 39.40625 0.625 
Q 34.8125 -1.421875 29.78125 -1.421875 
Q 24.46875 -1.421875 20.5625 1.015625 
Q 16.65625 3.46875 14.203125 8.296875 
L 12.59375 0 
L 3.609375 0 
L 18.40625 75.984375 
L 27.390625 75.984375 
z
" id="DejaVuSans-Oblique-98"/>
      <path d="M 23.296875 46.09375 
L 28.71875 12.3125 
L 54 54.6875 
L 63.53125 54.6875 
L 30.8125 0 
L 26.765625 -20.796875 
L 17.78125 -20.796875 
L 21.828125 0 
L 15.4375 40.828125 
Q 14.453125 46.96875 9.8125 46.96875 
L 7.421875 46.96875 
L 8.890625 54.6875 
L 12.3125 54.6875 
Q 21.921875 54.6875 23.296875 46.09375 
z
" id="DejaVuSans-Oblique-947"/>
     </defs>
     <g transform="translate(102.517187 229.92)rotate(-90)scale(0.2 -0.2)">
      <use transform="translate(0 0.78125)" xlink:href="#DejaVuSans-Oblique-948"/>
      <use transform="translate(61.181641 -15.625)scale(0.7)" xlink:href="#DejaVuSans-Oblique-98"/>
      <use transform="translate(105.615234 -15.625)scale(0.7)" xlink:href="#DejaVuSans-Oblique-947"/>
     </g>
    </g>
   </g>
   <g id="LineCollection_1">
    <path clip-path="url(#p5d925a46fa)" d="M 184.581818 247.536 
L 996.218182 247.536 
" style="fill:none;stroke:#000000;stroke-width:1.5;"/>
   </g>
   <g id="line2d_12">
    <path clip-path="url(#p5d925a46fa)" d="M 184.581818 247.536 
L 192.780165 235.134608 
L 200.978512 222.845526 
L 209.17686 210.780044 
L 217.375207 199.047429 
L 225.573554 187.753935 
L 233.771901 177.001836 
L 241.970248 166.888506 
L 250.168595 157.505532 
L 258.366942 148.937888 
L 266.565289 141.263163 
L 274.763636 134.550862 
L 282.961983 128.861771 
L 291.160331 124.247413 
L 299.358678 120.749576 
L 307.557025 118.399935 
L 315.755372 117.219771 
L 323.953719 117.219771 
L 332.152066 118.399935 
L 340.350413 120.749576 
L 348.54876 124.247413 
L 356.747107 128.861771 
L 364.945455 134.550862 
L 373.143802 141.263163 
L 381.342149 148.937888 
L 389.540496 157.505532 
L 397.738843 166.888506 
L 405.93719 177.001836 
L 414.135537 187.753935 
L 422.333884 199.047429 
L 430.532231 210.780044 
L 438.730579 222.845526 
L 446.928926 235.134608 
L 455.127273 247.536 
L 463.32562 259.937392 
L 471.523967 272.226474 
L 479.722314 284.291956 
L 487.920661 296.024571 
L 496.119008 307.318065 
L 504.317355 318.070164 
L 512.515702 328.183494 
L 520.71405 337.566468 
L 528.912397 346.134112 
L 537.110744 353.808837 
L 545.309091 360.521138 
L 553.507438 366.210229 
L 561.705785 370.824587 
L 569.904132 374.322424 
L 578.102479 376.672065 
L 586.300826 377.852229 
L 594.499174 377.852229 
L 602.697521 376.672065 
L 610.895868 374.322424 
L 619.094215 370.824587 
L 627.292562 366.210229 
L 635.490909 360.521138 
L 643.689256 353.808837 
L 651.887603 346.134112 
L 660.08595 337.566468 
L 668.284298 328.183494 
L 676.482645 318.070164 
L 684.680992 307.318065 
L 692.879339 296.024571 
L 701.077686 284.291956 
L 709.276033 272.226474 
L 717.47438 259.937392 
L 725.672727 247.536 
L 733.871074 235.134608 
L 742.069421 222.845526 
L 750.267769 210.780044 
L 758.466116 199.047429 
L 766.664463 187.753935 
L 774.86281 177.001836 
L 783.061157 166.888506 
L 791.259504 157.505532 
L 799.457851 148.937888 
L 807.656198 141.263163 
L 815.854545 134.550862 
L 824.052893 128.861771 
L 832.25124 124.247413 
L 840.449587 120.749576 
L 848.647934 118.399935 
L 856.846281 117.219771 
L 865.044628 117.219771 
L 873.242975 118.399935 
L 881.441322 120.749576 
L 889.639669 124.247413 
L 897.838017 128.861771 
L 906.036364 134.550862 
L 914.234711 141.263163 
L 922.433058 148.937888 
L 930.631405 157.505532 
L 938.829752 166.888506 
L 947.028099 177.001836 
L 955.226446 187.753935 
L 963.424793 199.047429 
L 971.62314 210.780044 
L 979.821488 222.845526 
L 988.019835 235.134608 
L 996.218182 247.536 
" style="fill:none;stroke:#1f77b4;stroke-linecap:square;stroke-width:2;"/>
   </g>
   <g id="line2d_13">
    <path clip-path="url(#p5d925a46fa)" d="M 184.581818 247.536 
L 192.780165 245.055722 
L 200.978512 242.597905 
L 209.17686 240.184809 
L 217.375207 237.838286 
L 225.573554 235.579587 
L 233.771901 233.429167 
L 241.970248 231.406501 
L 250.168595 229.529906 
L 258.366942 227.816378 
L 266.565289 226.281433 
L 274.763636 224.938972 
L 282.961983 223.801154 
L 291.160331 222.878283 
L 299.358678 222.178715 
L 307.557025 221.708787 
L 315.755372 221.472754 
L 323.953719 221.472754 
L 332.152066 221.708787 
L 340.350413 222.178715 
L 348.54876 222.878283 
L 356.747107 223.801154 
L 364.945455 224.938972 
L 373.143802 226.281433 
L 381.342149 227.816378 
L 389.540496 229.529906 
L 397.738843 231.406501 
L 405.93719 233.429167 
L 414.135537 235.579587 
L 422.333884 237.838286 
L 430.532231 240.184809 
L 438.730579 242.597905 
L 446.928926 245.055722 
L 455.127273 247.536 
L 463.32562 250.016278 
L 471.523967 252.474095 
L 479.722314 254.887191 
L 487.920661 257.233714 
L 496.119008 259.492413 
L 504.317355 261.642833 
L 512.515702 263.665499 
L 520.71405 265.542094 
L 528.912397 267.255622 
L 537.110744 268.790567 
L 545.309091 270.133028 
L 553.507438 271.270846 
L 561.705785 272.193717 
L 569.904132 272.893285 
L 578.102479 273.363213 
L 586.300826 273.599246 
L 594.499174 273.599246 
L 602.697521 273.363213 
L 610.895868 272.893285 
L 619.094215 272.193717 
L 627.292562 271.270846 
L 635.490909 270.133028 
L 643.689256 268.790567 
L 651.887603 267.255622 
L 660.08595 265.542094 
L 668.284298 263.665499 
L 676.482645 261.642833 
L 684.680992 259.492413 
L 692.879339 257.233714 
L 701.077686 254.887191 
L 709.276033 252.474095 
L 717.47438 250.016278 
L 725.672727 247.536 
L 733.871074 245.055722 
L 742.069421 242.597905 
L 750.267769 240.184809 
L 758.466116 237.838286 
L 766.664463 235.579587 
L 774.86281 233.429167 
L 783.061157 231.406501 
L 791.259504 229.529906 
L 799.457851 227.816378 
L 807.656198 226.281433 
L 815.854545 224.938972 
L 824.052893 223.801154 
L 832.25124 222.878283 
L 840.449587 222.178715 
L 848.647934 221.708787 
L 856.846281 221.472754 
L 865.044628 221.472754 
L 873.242975 221.708787 
L 881.441322 222.178715 
L 889.639669 222.878283 
L 897.838017 223.801154 
L 906.036364 224.938972 
L 914.234711 226.281433 
L 922.433058 227.816378 
L 930.631405 229.529906 
L 938.829752 231.406501 
L 947.028099 233.429167 
L 955.226446 235.579587 
L 963.424793 237.838286 
L 971.62314 240.184809 
L 979.821488 242.597905 
L 988.019835 245.055722 
L 996.218182 247.536 
" style="fill:none;stroke:#ff7f0e;stroke-linecap:square;stroke-width:2;"/>
   </g>
   <g id="line2d_14">
    <path clip-path="url(#p5d925a46fa)" d="M 184.581818 247.536 
L 192.780165 259.937392 
L 200.978512 272.226474 
L 209.17686 284.291956 
L 217.375207 296.024571 
L 225.573554 307.318065 
L 233.771901 318.070164 
L 241.970248 328.183494 
L 250.168595 337.566468 
L 258.366942 346.134112 
L 266.565289 353.808837 
L 274.763636 360.521138 
L 282.961983 366.210229 
L 291.160331 370.824587 
L 299.358678 374.322424 
L 307.557025 376.672065 
L 315.755372 377.852229 
L 323.953719 377.852229 
L 332.152066 376.672065 
L 340.350413 374.322424 
L 348.54876 370.824587 
L 356.747107 366.210229 
L 364.945455 360.521138 
L 373.143802 353.808837 
L 381.342149 346.134112 
L 389.540496 337.566468 
L 397.738843 328.183494 
L 405.93719 318.070164 
L 414.135537 307.318065 
L 422.333884 296.024571 
L 430.532231 284.291956 
L 438.730579 272.226474 
L 446.928926 259.937392 
L 455.127273 247.536 
L 463.32562 235.134608 
L 471.523967 222.845526 
L 479.722314 210.780044 
L 487.920661 199.047429 
L 496.119008 187.753935 
L 504.317355 177.001836 
L 512.515702 166.888506 
L 520.71405 157.505532 
L 528.912397 148.937888 
L 537.110744 141.263163 
L 545.309091 134.550862 
L 553.507438 128.861771 
L 561.705785 124.247413 
L 569.904132 120.749576 
L 578.102479 118.399935 
L 586.300826 117.219771 
L 594.499174 117.219771 
L 602.697521 118.399935 
L 610.895868 120.749576 
L 619.094215 124.247413 
L 627.292562 128.861771 
L 635.490909 134.550862 
L 643.689256 141.263163 
L 651.887603 148.937888 
L 660.08595 157.505532 
L 668.284298 166.888506 
L 676.482645 177.001836 
L 684.680992 187.753935 
L 692.879339 199.047429 
L 701.077686 210.780044 
L 709.276033 222.845526 
L 717.47438 235.134608 
L 725.672727 247.536 
L 733.871074 259.937392 
L 742.069421 272.226474 
L 750.267769 284.291956 
L 758.466116 296.024571 
L 766.664463 307.318065 
L 774.86281 318.070164 
L 783.061157 328.183494 
L 791.259504 337.566468 
L 799.457851 346.134112 
L 807.656198 353.808837 
L 815.854545 360.521138 
L 824.052893 366.210229 
L 832.25124 370.824587 
L 840.449587 374.322424 
L 848.647934 376.672065 
L 856.846281 377.852229 
L 865.044628 377.852229 
L 873.242975 376.672065 
L 881.441322 374.322424 
L 889.639669 370.824587 
L 897.838017 366.210229 
L 906.036364 360.521138 
L 914.234711 353.808837 
L 922.433058 346.134112 
L 930.631405 337.566468 
L 938.829752 328.183494 
L 947.028099 318.070164 
L 955.226446 307.318065 
L 963.424793 296.024571 
L 971.62314 284.291956 
L 979.821488 272.226474 
L 988.019835 259.937392 
L 996.218182 247.536 
" style="fill:none;stroke:#2ca02c;stroke-linecap:square;stroke-width:2;"/>
   </g>
   <g id="patch_3">
    <path d="M 144 378 
L 144 51.84 
" style="fill:none;stroke:#000000;stroke-linecap:square;stroke-linejoin:miter;stroke-width:0.8;"/>
   </g>
   <g id="patch_4">
    <path d="M 1036.8 378 
L 1036.8 51.84 
" style="fill:none;stroke:#000000;stroke-linecap:square;stroke-linejoin:miter;stroke-width:0.8;"/>
   </g>
   <g id="patch_5">
    <path d="M 144 378 
L 1036.8 378 
" style="fill:none;stroke:#000000;stroke-linecap:square;stroke-linejoin:miter;stroke-width:0.8;"/>
   </g>
   <g id="patch_6">
    <path d="M 144 51.84 
L 1036.8 51.84 
" style="fill:none;stroke:#000000;stroke-linecap:square;stroke-linejoin:miter;stroke-width:0.8;"/>
   </g>
   <g id="text_14">
    <!-- $\phi &lt; 0$ -->
    <defs>
     <path d="M 46.734375 75.984375 
L 42.78125 55.8125 
Q 52.546875 55.8125 57.5625 48.34375 
Q 62.75 40.71875 60.15625 27.296875 
Q 57.515625 13.875 49.359375 6.25 
Q 41.453125 -1.21875 31.6875 -1.21875 
L 27.875 -20.796875 
L 18.953125 -20.796875 
L 22.75 -1.21875 
Q 13.03125 -1.21875 7.953125 6.25 
Q 2.78125 13.875 5.421875 27.296875 
Q 8.015625 40.71875 16.15625 48.34375 
Q 24.125 55.8125 33.84375 55.8125 
L 37.796875 75.984375 
z
M 33.25 6.78125 
Q 38.765625 6.78125 43.5 11.8125 
Q 48.6875 17.4375 50.6875 27.296875 
Q 52.640625 37.0625 49.515625 42.78125 
Q 46.734375 47.796875 41.21875 47.796875 
z
M 24.3125 6.78125 
L 32.28125 47.796875 
Q 26.8125 47.796875 22.078125 42.78125 
Q 16.75 37.0625 14.890625 27.296875 
Q 13.03125 17.4375 16.0625 11.8125 
Q 18.796875 6.78125 24.3125 6.78125 
z
" id="DejaVuSans-Oblique-981"/>
     <path d="M 73.1875 49.21875 
L 22.796875 31.296875 
L 73.1875 13.484375 
L 73.1875 4.59375 
L 10.59375 27.296875 
L 10.59375 35.40625 
L 73.1875 58.109375 
z
" id="DejaVuSans-60"/>
    </defs>
    <g transform="translate(296.534299 312.768)scale(0.2 -0.2)">
     <use transform="translate(0 0.015625)" xlink:href="#DejaVuSans-Oblique-981"/>
     <use transform="translate(85.449219 0.015625)" xlink:href="#DejaVuSans-60"/>
     <use transform="translate(188.720703 0.015625)" xlink:href="#DejaVuSans-48"/>
    </g>
   </g>
   <g id="text_15">
    <!-- $\phi &gt;0$ -->
    <defs>
     <path d="M 10.59375 49.21875 
L 10.59375 58.109375 
L 73.1875 35.40625 
L 73.1875 27.296875 
L 10.59375 4.59375 
L 10.59375 13.484375 
L 60.890625 31.296875 
z
" id="DejaVuSans-62"/>
    </defs>
    <g transform="translate(563.497907 312.768)scale(0.2 -0.2)">
     <use transform="translate(0 0.015625)" xlink:href="#DejaVuSans-Oblique-981"/>
     <use transform="translate(85.449219 0.015625)" xlink:href="#DejaVuSans-62"/>
     <use transform="translate(188.720703 0.015625)" xlink:href="#DejaVuSans-48"/>
    </g>
   </g>
   <g id="text_16">
    <!-- $\phi &lt; 0$ -->
    <g transform="translate(830.461515 312.768)scale(0.2 -0.2)">
     <use transform="translate(0 0.015625)" xlink:href="#DejaVuSans-Oblique-981"/>
     <use transform="translate(85.449219 0.015625)" xlink:href="#DejaVuSans-60"/>
     <use transform="translate(188.720703 0.015625)" xlink:href="#DejaVuSans-48"/>
    </g>
   </g>
   <g id="text_17">
    <!-- Overdensities of photon-baryon fluid as a function of position at various times -->
    <defs>
     <path d="M 39.40625 66.21875 
Q 28.65625 66.21875 22.328125 58.203125 
Q 16.015625 50.203125 16.015625 36.375 
Q 16.015625 22.609375 22.328125 14.59375 
Q 28.65625 6.59375 39.40625 6.59375 
Q 50.140625 6.59375 56.421875 14.59375 
Q 62.703125 22.609375 62.703125 36.375 
Q 62.703125 50.203125 56.421875 58.203125 
Q 50.140625 66.21875 39.40625 66.21875 
z
M 39.40625 74.21875 
Q 54.734375 74.21875 63.90625 63.9375 
Q 73.09375 53.65625 73.09375 36.375 
Q 73.09375 19.140625 63.90625 8.859375 
Q 54.734375 -1.421875 39.40625 -1.421875 
Q 24.03125 -1.421875 14.8125 8.828125 
Q 5.609375 19.09375 5.609375 36.375 
Q 5.609375 53.65625 14.8125 63.9375 
Q 24.03125 74.21875 39.40625 74.21875 
z
" id="DejaVuSans-79"/>
     <path d="M 2.984375 54.6875 
L 12.5 54.6875 
L 29.59375 8.796875 
L 46.6875 54.6875 
L 56.203125 54.6875 
L 35.6875 0 
L 23.484375 0 
z
" id="DejaVuSans-118"/>
     <path d="M 56.203125 29.59375 
L 56.203125 25.203125 
L 14.890625 25.203125 
Q 15.484375 15.921875 20.484375 11.0625 
Q 25.484375 6.203125 34.421875 6.203125 
Q 39.59375 6.203125 44.453125 7.46875 
Q 49.3125 8.734375 54.109375 11.28125 
L 54.109375 2.78125 
Q 49.265625 0.734375 44.1875 -0.34375 
Q 39.109375 -1.421875 33.890625 -1.421875 
Q 20.796875 -1.421875 13.15625 6.1875 
Q 5.515625 13.8125 5.515625 26.8125 
Q 5.515625 40.234375 12.765625 48.109375 
Q 20.015625 56 32.328125 56 
Q 43.359375 56 49.78125 48.890625 
Q 56.203125 41.796875 56.203125 29.59375 
z
M 47.21875 32.234375 
Q 47.125 39.59375 43.09375 43.984375 
Q 39.0625 48.390625 32.421875 48.390625 
Q 24.90625 48.390625 20.390625 44.140625 
Q 15.875 39.890625 15.1875 32.171875 
z
" id="DejaVuSans-101"/>
     <path d="M 41.109375 46.296875 
Q 39.59375 47.171875 37.8125 47.578125 
Q 36.03125 48 33.890625 48 
Q 26.265625 48 22.1875 43.046875 
Q 18.109375 38.09375 18.109375 28.8125 
L 18.109375 0 
L 9.078125 0 
L 9.078125 54.6875 
L 18.109375 54.6875 
L 18.109375 46.1875 
Q 20.953125 51.171875 25.484375 53.578125 
Q 30.03125 56 36.53125 56 
Q 37.453125 56 38.578125 55.875 
Q 39.703125 55.765625 41.0625 55.515625 
z
" id="DejaVuSans-114"/>
     <path d="M 45.40625 46.390625 
L 45.40625 75.984375 
L 54.390625 75.984375 
L 54.390625 0 
L 45.40625 0 
L 45.40625 8.203125 
Q 42.578125 3.328125 38.25 0.953125 
Q 33.9375 -1.421875 27.875 -1.421875 
Q 17.96875 -1.421875 11.734375 6.484375 
Q 5.515625 14.40625 5.515625 27.296875 
Q 5.515625 40.1875 11.734375 48.09375 
Q 17.96875 56 27.875 56 
Q 33.9375 56 38.25 53.625 
Q 42.578125 51.265625 45.40625 46.390625 
z
M 14.796875 27.296875 
Q 14.796875 17.390625 18.875 11.75 
Q 22.953125 6.109375 30.078125 6.109375 
Q 37.203125 6.109375 41.296875 11.75 
Q 45.40625 17.390625 45.40625 27.296875 
Q 45.40625 37.203125 41.296875 42.84375 
Q 37.203125 48.484375 30.078125 48.484375 
Q 22.953125 48.484375 18.875 42.84375 
Q 14.796875 37.203125 14.796875 27.296875 
z
" id="DejaVuSans-100"/>
     <path d="M 54.890625 33.015625 
L 54.890625 0 
L 45.90625 0 
L 45.90625 32.71875 
Q 45.90625 40.484375 42.875 44.328125 
Q 39.84375 48.1875 33.796875 48.1875 
Q 26.515625 48.1875 22.3125 43.546875 
Q 18.109375 38.921875 18.109375 30.90625 
L 18.109375 0 
L 9.078125 0 
L 9.078125 54.6875 
L 18.109375 54.6875 
L 18.109375 46.1875 
Q 21.34375 51.125 25.703125 53.5625 
Q 30.078125 56 35.796875 56 
Q 45.21875 56 50.046875 50.171875 
Q 54.890625 44.34375 54.890625 33.015625 
z
" id="DejaVuSans-110"/>
     <path d="M 44.28125 53.078125 
L 44.28125 44.578125 
Q 40.484375 46.53125 36.375 47.5 
Q 32.28125 48.484375 27.875 48.484375 
Q 21.1875 48.484375 17.84375 46.4375 
Q 14.5 44.390625 14.5 40.28125 
Q 14.5 37.15625 16.890625 35.375 
Q 19.28125 33.59375 26.515625 31.984375 
L 29.59375 31.296875 
Q 39.15625 29.25 43.1875 25.515625 
Q 47.21875 21.78125 47.21875 15.09375 
Q 47.21875 7.46875 41.1875 3.015625 
Q 35.15625 -1.421875 24.609375 -1.421875 
Q 20.21875 -1.421875 15.453125 -0.5625 
Q 10.6875 0.296875 5.421875 2 
L 5.421875 11.28125 
Q 10.40625 8.6875 15.234375 7.390625 
Q 20.0625 6.109375 24.8125 6.109375 
Q 31.15625 6.109375 34.5625 8.28125 
Q 37.984375 10.453125 37.984375 14.40625 
Q 37.984375 18.0625 35.515625 20.015625 
Q 33.0625 21.96875 24.703125 23.78125 
L 21.578125 24.515625 
Q 13.234375 26.265625 9.515625 29.90625 
Q 5.8125 33.546875 5.8125 39.890625 
Q 5.8125 47.609375 11.28125 51.796875 
Q 16.75 56 26.8125 56 
Q 31.78125 56 36.171875 55.265625 
Q 40.578125 54.546875 44.28125 53.078125 
z
" id="DejaVuSans-115"/>
     <path d="M 9.421875 54.6875 
L 18.40625 54.6875 
L 18.40625 0 
L 9.421875 0 
z
M 9.421875 75.984375 
L 18.40625 75.984375 
L 18.40625 64.59375 
L 9.421875 64.59375 
z
" id="DejaVuSans-105"/>
     <path d="M 18.3125 70.21875 
L 18.3125 54.6875 
L 36.8125 54.6875 
L 36.8125 47.703125 
L 18.3125 47.703125 
L 18.3125 18.015625 
Q 18.3125 11.328125 20.140625 9.421875 
Q 21.96875 7.515625 27.59375 7.515625 
L 36.8125 7.515625 
L 36.8125 0 
L 27.59375 0 
Q 17.1875 0 13.234375 3.875 
Q 9.28125 7.765625 9.28125 18.015625 
L 9.28125 47.703125 
L 2.6875 47.703125 
L 2.6875 54.6875 
L 9.28125 54.6875 
L 9.28125 70.21875 
z
" id="DejaVuSans-116"/>
     <path id="DejaVuSans-32"/>
     <path d="M 30.609375 48.390625 
Q 23.390625 48.390625 19.1875 42.75 
Q 14.984375 37.109375 14.984375 27.296875 
Q 14.984375 17.484375 19.15625 11.84375 
Q 23.34375 6.203125 30.609375 6.203125 
Q 37.796875 6.203125 41.984375 11.859375 
Q 46.1875 17.53125 46.1875 27.296875 
Q 46.1875 37.015625 41.984375 42.703125 
Q 37.796875 48.390625 30.609375 48.390625 
z
M 30.609375 56 
Q 42.328125 56 49.015625 48.375 
Q 55.71875 40.765625 55.71875 27.296875 
Q 55.71875 13.875 49.015625 6.21875 
Q 42.328125 -1.421875 30.609375 -1.421875 
Q 18.84375 -1.421875 12.171875 6.21875 
Q 5.515625 13.875 5.515625 27.296875 
Q 5.515625 40.765625 12.171875 48.375 
Q 18.84375 56 30.609375 56 
z
" id="DejaVuSans-111"/>
     <path d="M 37.109375 75.984375 
L 37.109375 68.5 
L 28.515625 68.5 
Q 23.6875 68.5 21.796875 66.546875 
Q 19.921875 64.59375 19.921875 59.515625 
L 19.921875 54.6875 
L 34.71875 54.6875 
L 34.71875 47.703125 
L 19.921875 47.703125 
L 19.921875 0 
L 10.890625 0 
L 10.890625 47.703125 
L 2.296875 47.703125 
L 2.296875 54.6875 
L 10.890625 54.6875 
L 10.890625 58.5 
Q 10.890625 67.625 15.140625 71.796875 
Q 19.390625 75.984375 28.609375 75.984375 
z
" id="DejaVuSans-102"/>
     <path d="M 18.109375 8.203125 
L 18.109375 -20.796875 
L 9.078125 -20.796875 
L 9.078125 54.6875 
L 18.109375 54.6875 
L 18.109375 46.390625 
Q 20.953125 51.265625 25.265625 53.625 
Q 29.59375 56 35.59375 56 
Q 45.5625 56 51.78125 48.09375 
Q 58.015625 40.1875 58.015625 27.296875 
Q 58.015625 14.40625 51.78125 6.484375 
Q 45.5625 -1.421875 35.59375 -1.421875 
Q 29.59375 -1.421875 25.265625 0.953125 
Q 20.953125 3.328125 18.109375 8.203125 
z
M 48.6875 27.296875 
Q 48.6875 37.203125 44.609375 42.84375 
Q 40.53125 48.484375 33.40625 48.484375 
Q 26.265625 48.484375 22.1875 42.84375 
Q 18.109375 37.203125 18.109375 27.296875 
Q 18.109375 17.390625 22.1875 11.75 
Q 26.265625 6.109375 33.40625 6.109375 
Q 40.53125 6.109375 44.609375 11.75 
Q 48.6875 17.390625 48.6875 27.296875 
z
" id="DejaVuSans-112"/>
     <path d="M 54.890625 33.015625 
L 54.890625 0 
L 45.90625 0 
L 45.90625 32.71875 
Q 45.90625 40.484375 42.875 44.328125 
Q 39.84375 48.1875 33.796875 48.1875 
Q 26.515625 48.1875 22.3125 43.546875 
Q 18.109375 38.921875 18.109375 30.90625 
L 18.109375 0 
L 9.078125 0 
L 9.078125 75.984375 
L 18.109375 75.984375 
L 18.109375 46.1875 
Q 21.34375 51.125 25.703125 53.5625 
Q 30.078125 56 35.796875 56 
Q 45.21875 56 50.046875 50.171875 
Q 54.890625 44.34375 54.890625 33.015625 
z
" id="DejaVuSans-104"/>
     <path d="M 4.890625 31.390625 
L 31.203125 31.390625 
L 31.203125 23.390625 
L 4.890625 23.390625 
z
" id="DejaVuSans-45"/>
     <path d="M 48.6875 27.296875 
Q 48.6875 37.203125 44.609375 42.84375 
Q 40.53125 48.484375 33.40625 48.484375 
Q 26.265625 48.484375 22.1875 42.84375 
Q 18.109375 37.203125 18.109375 27.296875 
Q 18.109375 17.390625 22.1875 11.75 
Q 26.265625 6.109375 33.40625 6.109375 
Q 40.53125 6.109375 44.609375 11.75 
Q 48.6875 17.390625 48.6875 27.296875 
z
M 18.109375 46.390625 
Q 20.953125 51.265625 25.265625 53.625 
Q 29.59375 56 35.59375 56 
Q 45.5625 56 51.78125 48.09375 
Q 58.015625 40.1875 58.015625 27.296875 
Q 58.015625 14.40625 51.78125 6.484375 
Q 45.5625 -1.421875 35.59375 -1.421875 
Q 29.59375 -1.421875 25.265625 0.953125 
Q 20.953125 3.328125 18.109375 8.203125 
L 18.109375 0 
L 9.078125 0 
L 9.078125 75.984375 
L 18.109375 75.984375 
z
" id="DejaVuSans-98"/>
     <path d="M 34.28125 27.484375 
Q 23.390625 27.484375 19.1875 25 
Q 14.984375 22.515625 14.984375 16.5 
Q 14.984375 11.71875 18.140625 8.90625 
Q 21.296875 6.109375 26.703125 6.109375 
Q 34.1875 6.109375 38.703125 11.40625 
Q 43.21875 16.703125 43.21875 25.484375 
L 43.21875 27.484375 
z
M 52.203125 31.203125 
L 52.203125 0 
L 43.21875 0 
L 43.21875 8.296875 
Q 40.140625 3.328125 35.546875 0.953125 
Q 30.953125 -1.421875 24.3125 -1.421875 
Q 15.921875 -1.421875 10.953125 3.296875 
Q 6 8.015625 6 15.921875 
Q 6 25.140625 12.171875 29.828125 
Q 18.359375 34.515625 30.609375 34.515625 
L 43.21875 34.515625 
L 43.21875 35.40625 
Q 43.21875 41.609375 39.140625 45 
Q 35.0625 48.390625 27.6875 48.390625 
Q 23 48.390625 18.546875 47.265625 
Q 14.109375 46.140625 10.015625 43.890625 
L 10.015625 52.203125 
Q 14.9375 54.109375 19.578125 55.046875 
Q 24.21875 56 28.609375 56 
Q 40.484375 56 46.34375 49.84375 
Q 52.203125 43.703125 52.203125 31.203125 
z
" id="DejaVuSans-97"/>
     <path d="M 32.171875 -5.078125 
Q 28.375 -14.84375 24.75 -17.8125 
Q 21.140625 -20.796875 15.09375 -20.796875 
L 7.90625 -20.796875 
L 7.90625 -13.28125 
L 13.1875 -13.28125 
Q 16.890625 -13.28125 18.9375 -11.515625 
Q 21 -9.765625 23.484375 -3.21875 
L 25.09375 0.875 
L 2.984375 54.6875 
L 12.5 54.6875 
L 29.59375 11.921875 
L 46.6875 54.6875 
L 56.203125 54.6875 
z
" id="DejaVuSans-121"/>
     <path d="M 9.421875 75.984375 
L 18.40625 75.984375 
L 18.40625 0 
L 9.421875 0 
z
" id="DejaVuSans-108"/>
     <path d="M 8.5 21.578125 
L 8.5 54.6875 
L 17.484375 54.6875 
L 17.484375 21.921875 
Q 17.484375 14.15625 20.5 10.265625 
Q 23.53125 6.390625 29.59375 6.390625 
Q 36.859375 6.390625 41.078125 11.03125 
Q 45.3125 15.671875 45.3125 23.6875 
L 45.3125 54.6875 
L 54.296875 54.6875 
L 54.296875 0 
L 45.3125 0 
L 45.3125 8.40625 
Q 42.046875 3.421875 37.71875 1 
Q 33.40625 -1.421875 27.6875 -1.421875 
Q 18.265625 -1.421875 13.375 4.4375 
Q 8.5 10.296875 8.5 21.578125 
z
M 31.109375 56 
z
" id="DejaVuSans-117"/>
     <path d="M 48.78125 52.59375 
L 48.78125 44.1875 
Q 44.96875 46.296875 41.140625 47.34375 
Q 37.3125 48.390625 33.40625 48.390625 
Q 24.65625 48.390625 19.8125 42.84375 
Q 14.984375 37.3125 14.984375 27.296875 
Q 14.984375 17.28125 19.8125 11.734375 
Q 24.65625 6.203125 33.40625 6.203125 
Q 37.3125 6.203125 41.140625 7.25 
Q 44.96875 8.296875 48.78125 10.40625 
L 48.78125 2.09375 
Q 45.015625 0.34375 40.984375 -0.53125 
Q 36.96875 -1.421875 32.421875 -1.421875 
Q 20.0625 -1.421875 12.78125 6.34375 
Q 5.515625 14.109375 5.515625 27.296875 
Q 5.515625 40.671875 12.859375 48.328125 
Q 20.21875 56 33.015625 56 
Q 37.15625 56 41.109375 55.140625 
Q 45.0625 54.296875 48.78125 52.59375 
z
" id="DejaVuSans-99"/>
     <path d="M 52 44.1875 
Q 55.375 50.25 60.0625 53.125 
Q 64.75 56 71.09375 56 
Q 79.640625 56 84.28125 50.015625 
Q 88.921875 44.046875 88.921875 33.015625 
L 88.921875 0 
L 79.890625 0 
L 79.890625 32.71875 
Q 79.890625 40.578125 77.09375 44.375 
Q 74.3125 48.1875 68.609375 48.1875 
Q 61.625 48.1875 57.5625 43.546875 
Q 53.515625 38.921875 53.515625 30.90625 
L 53.515625 0 
L 44.484375 0 
L 44.484375 32.71875 
Q 44.484375 40.625 41.703125 44.40625 
Q 38.921875 48.1875 33.109375 48.1875 
Q 26.21875 48.1875 22.15625 43.53125 
Q 18.109375 38.875 18.109375 30.90625 
L 18.109375 0 
L 9.078125 0 
L 9.078125 54.6875 
L 18.109375 54.6875 
L 18.109375 46.1875 
Q 21.1875 51.21875 25.484375 53.609375 
Q 29.78125 56 35.6875 56 
Q 41.65625 56 45.828125 52.96875 
Q 50 49.953125 52 44.1875 
z
" id="DejaVuSans-109"/>
    </defs>
    <g transform="translate(199.332812 45.84)scale(0.2 -0.2)">
     <use xlink:href="#DejaVuSans-79"/>
     <use x="78.710938" xlink:href="#DejaVuSans-118"/>
     <use x="137.890625" xlink:href="#DejaVuSans-101"/>
     <use x="199.414062" xlink:href="#DejaVuSans-114"/>
     <use x="240.511719" xlink:href="#DejaVuSans-100"/>
     <use x="303.988281" xlink:href="#DejaVuSans-101"/>
     <use x="365.511719" xlink:href="#DejaVuSans-110"/>
     <use x="428.890625" xlink:href="#DejaVuSans-115"/>
     <use x="480.990234" xlink:href="#DejaVuSans-105"/>
     <use x="508.773438" xlink:href="#DejaVuSans-116"/>
     <use x="547.982422" xlink:href="#DejaVuSans-105"/>
     <use x="575.765625" xlink:href="#DejaVuSans-101"/>
     <use x="637.289062" xlink:href="#DejaVuSans-115"/>
     <use x="689.388672" xlink:href="#DejaVuSans-32"/>
     <use x="721.175781" xlink:href="#DejaVuSans-111"/>
     <use x="782.357422" xlink:href="#DejaVuSans-102"/>
     <use x="817.5625" xlink:href="#DejaVuSans-32"/>
     <use x="849.349609" xlink:href="#DejaVuSans-112"/>
     <use x="912.826172" xlink:href="#DejaVuSans-104"/>
     <use x="976.205078" xlink:href="#DejaVuSans-111"/>
     <use x="1037.386719" xlink:href="#DejaVuSans-116"/>
     <use x="1076.595703" xlink:href="#DejaVuSans-111"/>
     <use x="1137.777344" xlink:href="#DejaVuSans-110"/>
     <use x="1201.15625" xlink:href="#DejaVuSans-45"/>
     <use x="1237.240234" xlink:href="#DejaVuSans-98"/>
     <use x="1300.716797" xlink:href="#DejaVuSans-97"/>
     <use x="1361.996094" xlink:href="#DejaVuSans-114"/>
     <use x="1403.109375" xlink:href="#DejaVuSans-121"/>
     <use x="1462.289062" xlink:href="#DejaVuSans-111"/>
     <use x="1523.470703" xlink:href="#DejaVuSans-110"/>
     <use x="1586.849609" xlink:href="#DejaVuSans-32"/>
     <use x="1618.636719" xlink:href="#DejaVuSans-102"/>
     <use x="1653.841797" xlink:href="#DejaVuSans-108"/>
     <use x="1681.625" xlink:href="#DejaVuSans-117"/>
     <use x="1745.003906" xlink:href="#DejaVuSans-105"/>
     <use x="1772.787109" xlink:href="#DejaVuSans-100"/>
     <use x="1836.263672" xlink:href="#DejaVuSans-32"/>
     <use x="1868.050781" xlink:href="#DejaVuSans-97"/>
     <use x="1929.330078" xlink:href="#DejaVuSans-115"/>
     <use x="1981.429688" xlink:href="#DejaVuSans-32"/>
     <use x="2013.216797" xlink:href="#DejaVuSans-97"/>
     <use x="2074.496094" xlink:href="#DejaVuSans-32"/>
     <use x="2106.283203" xlink:href="#DejaVuSans-102"/>
     <use x="2141.488281" xlink:href="#DejaVuSans-117"/>
     <use x="2204.867188" xlink:href="#DejaVuSans-110"/>
     <use x="2268.246094" xlink:href="#DejaVuSans-99"/>
     <use x="2323.226562" xlink:href="#DejaVuSans-116"/>
     <use x="2362.435547" xlink:href="#DejaVuSans-105"/>
     <use x="2390.21875" xlink:href="#DejaVuSans-111"/>
     <use x="2451.400391" xlink:href="#DejaVuSans-110"/>
     <use x="2514.779297" xlink:href="#DejaVuSans-32"/>
     <use x="2546.566406" xlink:href="#DejaVuSans-111"/>
     <use x="2607.748047" xlink:href="#DejaVuSans-102"/>
     <use x="2642.953125" xlink:href="#DejaVuSans-32"/>
     <use x="2674.740234" xlink:href="#DejaVuSans-112"/>
     <use x="2738.216797" xlink:href="#DejaVuSans-111"/>
     <use x="2799.398438" xlink:href="#DejaVuSans-115"/>
     <use x="2851.498047" xlink:href="#DejaVuSans-105"/>
     <use x="2879.28125" xlink:href="#DejaVuSans-116"/>
     <use x="2918.490234" xlink:href="#DejaVuSans-105"/>
     <use x="2946.273438" xlink:href="#DejaVuSans-111"/>
     <use x="3007.455078" xlink:href="#DejaVuSans-110"/>
     <use x="3070.833984" xlink:href="#DejaVuSans-32"/>
     <use x="3102.621094" xlink:href="#DejaVuSans-97"/>
     <use x="3163.900391" xlink:href="#DejaVuSans-116"/>
     <use x="3203.109375" xlink:href="#DejaVuSans-32"/>
     <use x="3234.896484" xlink:href="#DejaVuSans-118"/>
     <use x="3294.076172" xlink:href="#DejaVuSans-97"/>
     <use x="3355.355469" xlink:href="#DejaVuSans-114"/>
     <use x="3396.46875" xlink:href="#DejaVuSans-105"/>
     <use x="3424.251953" xlink:href="#DejaVuSans-111"/>
     <use x="3485.433594" xlink:href="#DejaVuSans-117"/>
     <use x="3548.8125" xlink:href="#DejaVuSans-115"/>
     <use x="3600.912109" xlink:href="#DejaVuSans-32"/>
     <use x="3632.699219" xlink:href="#DejaVuSans-116"/>
     <use x="3671.908203" xlink:href="#DejaVuSans-105"/>
     <use x="3699.691406" xlink:href="#DejaVuSans-109"/>
     <use x="3797.103516" xlink:href="#DejaVuSans-101"/>
     <use x="3858.626953" xlink:href="#DejaVuSans-115"/>
    </g>
   </g>
   <g id="legend_1">
    <g id="patch_7">
     <path d="M 164.984219 90.392812 
L 1024.9 90.392812 
Q 1028.3 90.392812 1028.3 86.992813 
L 1028.3 63.74 
Q 1028.3 60.34 1024.9 60.34 
L 164.984219 60.34 
Q 161.584219 60.34 161.584219 63.74 
L 161.584219 86.992813 
Q 161.584219 90.392812 164.984219 90.392812 
z
" style="fill:#ffffff;opacity:0.8;stroke:#cccccc;stroke-linejoin:miter;"/>
    </g>
    <g id="line2d_15">
     <path d="M 168.384219 74.107344 
L 202.384219 74.107344 
" style="fill:none;stroke:#1f77b4;stroke-linecap:square;stroke-width:2;"/>
    </g>
    <g id="line2d_16"/>
    <g id="text_18">
     <!-- T0:maximum compression -->
     <defs>
      <path d="M -0.296875 72.90625 
L 61.375 72.90625 
L 61.375 64.59375 
L 35.5 64.59375 
L 35.5 0 
L 25.59375 0 
L 25.59375 64.59375 
L -0.296875 64.59375 
z
" id="DejaVuSans-84"/>
      <path d="M 11.71875 12.40625 
L 22.015625 12.40625 
L 22.015625 0 
L 11.71875 0 
z
M 11.71875 51.703125 
L 22.015625 51.703125 
L 22.015625 39.3125 
L 11.71875 39.3125 
z
" id="DejaVuSans-58"/>
     </defs>
     <g transform="translate(215.984219 80.057344)scale(0.17 -0.17)">
      <use xlink:href="#DejaVuSans-84"/>
      <use x="61.083984" xlink:href="#DejaVuSans-48"/>
      <use x="124.707031" xlink:href="#DejaVuSans-58"/>
      <use x="158.398438" xlink:href="#DejaVuSans-109"/>
      <use x="255.810547" xlink:href="#DejaVuSans-97"/>
      <use x="317.089844" xlink:href="#DejaVuSans-120"/>
      <use x="376.269531" xlink:href="#DejaVuSans-105"/>
      <use x="404.052734" xlink:href="#DejaVuSans-109"/>
      <use x="501.464844" xlink:href="#DejaVuSans-117"/>
      <use x="564.84375" xlink:href="#DejaVuSans-109"/>
      <use x="662.255859" xlink:href="#DejaVuSans-32"/>
      <use x="694.042969" xlink:href="#DejaVuSans-99"/>
      <use x="749.023438" xlink:href="#DejaVuSans-111"/>
      <use x="810.205078" xlink:href="#DejaVuSans-109"/>
      <use x="907.617188" xlink:href="#DejaVuSans-112"/>
      <use x="971.09375" xlink:href="#DejaVuSans-114"/>
      <use x="1012.175781" xlink:href="#DejaVuSans-101"/>
      <use x="1073.699219" xlink:href="#DejaVuSans-115"/>
      <use x="1125.798828" xlink:href="#DejaVuSans-115"/>
      <use x="1177.898438" xlink:href="#DejaVuSans-105"/>
      <use x="1205.681641" xlink:href="#DejaVuSans-111"/>
      <use x="1266.863281" xlink:href="#DejaVuSans-110"/>
     </g>
    </g>
    <g id="line2d_17">
     <path d="M 476.121406 74.107344 
L 510.121406 74.107344 
" style="fill:none;stroke:#ff7f0e;stroke-linecap:square;stroke-width:2;"/>
    </g>
    <g id="line2d_18"/>
    <g id="text_19">
     <!-- T1:equilibrium level -->
     <defs>
      <path d="M 14.796875 27.296875 
Q 14.796875 17.390625 18.875 11.75 
Q 22.953125 6.109375 30.078125 6.109375 
Q 37.203125 6.109375 41.296875 11.75 
Q 45.40625 17.390625 45.40625 27.296875 
Q 45.40625 37.203125 41.296875 42.84375 
Q 37.203125 48.484375 30.078125 48.484375 
Q 22.953125 48.484375 18.875 42.84375 
Q 14.796875 37.203125 14.796875 27.296875 
z
M 45.40625 8.203125 
Q 42.578125 3.328125 38.25 0.953125 
Q 33.9375 -1.421875 27.875 -1.421875 
Q 17.96875 -1.421875 11.734375 6.484375 
Q 5.515625 14.40625 5.515625 27.296875 
Q 5.515625 40.1875 11.734375 48.09375 
Q 17.96875 56 27.875 56 
Q 33.9375 56 38.25 53.625 
Q 42.578125 51.265625 45.40625 46.390625 
L 45.40625 54.6875 
L 54.390625 54.6875 
L 54.390625 -20.796875 
L 45.40625 -20.796875 
z
" id="DejaVuSans-113"/>
     </defs>
     <g transform="translate(523.721406 80.057344)scale(0.17 -0.17)">
      <use xlink:href="#DejaVuSans-84"/>
      <use x="61.083984" xlink:href="#DejaVuSans-49"/>
      <use x="124.707031" xlink:href="#DejaVuSans-58"/>
      <use x="158.398438" xlink:href="#DejaVuSans-101"/>
      <use x="219.921875" xlink:href="#DejaVuSans-113"/>
      <use x="283.398438" xlink:href="#DejaVuSans-117"/>
      <use x="346.777344" xlink:href="#DejaVuSans-105"/>
      <use x="374.560547" xlink:href="#DejaVuSans-108"/>
      <use x="402.34375" xlink:href="#DejaVuSans-105"/>
      <use x="430.126953" xlink:href="#DejaVuSans-98"/>
      <use x="493.603516" xlink:href="#DejaVuSans-114"/>
      <use x="534.716797" xlink:href="#DejaVuSans-105"/>
      <use x="562.5" xlink:href="#DejaVuSans-117"/>
      <use x="625.878906" xlink:href="#DejaVuSans-109"/>
      <use x="723.291016" xlink:href="#DejaVuSans-32"/>
      <use x="755.078125" xlink:href="#DejaVuSans-108"/>
      <use x="782.861328" xlink:href="#DejaVuSans-101"/>
      <use x="844.384766" xlink:href="#DejaVuSans-118"/>
      <use x="903.564453" xlink:href="#DejaVuSans-101"/>
      <use x="965.087891" xlink:href="#DejaVuSans-108"/>
     </g>
    </g>
    <g id="line2d_19">
     <path d="M 726.510156 74.107344 
L 760.510156 74.107344 
" style="fill:none;stroke:#2ca02c;stroke-linecap:square;stroke-width:2;"/>
    </g>
    <g id="line2d_20"/>
    <g id="text_20">
     <!-- T2:maximum decompression -->
     <g transform="translate(774.110156 80.057344)scale(0.17 -0.17)">
      <use xlink:href="#DejaVuSans-84"/>
      <use x="61.083984" xlink:href="#DejaVuSans-50"/>
      <use x="124.707031" xlink:href="#DejaVuSans-58"/>
      <use x="158.398438" xlink:href="#DejaVuSans-109"/>
      <use x="255.810547" xlink:href="#DejaVuSans-97"/>
      <use x="317.089844" xlink:href="#DejaVuSans-120"/>
      <use x="376.269531" xlink:href="#DejaVuSans-105"/>
      <use x="404.052734" xlink:href="#DejaVuSans-109"/>
      <use x="501.464844" xlink:href="#DejaVuSans-117"/>
      <use x="564.84375" xlink:href="#DejaVuSans-109"/>
      <use x="662.255859" xlink:href="#DejaVuSans-32"/>
      <use x="694.042969" xlink:href="#DejaVuSans-100"/>
      <use x="757.519531" xlink:href="#DejaVuSans-101"/>
      <use x="819.042969" xlink:href="#DejaVuSans-99"/>
      <use x="874.023438" xlink:href="#DejaVuSans-111"/>
      <use x="935.205078" xlink:href="#DejaVuSans-109"/>
      <use x="1032.617188" xlink:href="#DejaVuSans-112"/>
      <use x="1096.09375" xlink:href="#DejaVuSans-114"/>
      <use x="1137.175781" xlink:href="#DejaVuSans-101"/>
      <use x="1198.699219" xlink:href="#DejaVuSans-115"/>
      <use x="1250.798828" xlink:href="#DejaVuSans-115"/>
      <use x="1302.898438" xlink:href="#DejaVuSans-105"/>
      <use x="1330.681641" xlink:href="#DejaVuSans-111"/>
      <use x="1391.863281" xlink:href="#DejaVuSans-110"/>
     </g>
    </g>
   </g>
  </g>
 </g>
 <defs>
  <clipPath id="p5d925a46fa">
   <rect height="326.16" width="892.8" x="144" y="51.84"/>
  </clipPath>
 </defs>
</svg>
